# xmcd
#
# Track frame offsets: 
#        150
#        22501
#        43752
#        63966
#        85364
#        104116
#        123356
#        141881
#        163554
#        183559
#        203508
#        223698
#
# Disc length: 3270 seconds
#
# Revision: 0
# Processed by: cddbd v1.5.2PL0 Copyright (c) Steve Scherf et al.
# Submitted via: ExactAudioCopy v0.99pb4
#
DISCID=a50cc40c
DTITLE=Juluis Petty - Thank You
DYEAR=2005
DGENRE=Gospel
TTITLE0=Make A Way
TTITLE1=Grateful
TTITLE2=Move (Juluis Petty Featuring Jugga)
TTITLE3=Everything
TTITLE4=Believe
TTITLE5=Thank You
TTITLE6=Get Your House In Order
TTITLE7=Thank You (The Remix)
TTITLE8=Press On
TTITLE9=Press On (The Remix)
TTITLE10=Move (The Remix, Juluis Petty Featuring Vantroy)
TTITLE11=F.S.G. Freestyle (Juluis Petty Featuring Jugga And Vantroy)
EXTD=
EXTT0=
EXTT1=
EXTT2=
EXTT3=
EXTT4=
EXTT5=
EXTT6=
EXTT7=
EXTT8=
EXTT9=
EXTT10=
EXTT11=
PLAYORDER=
